<svg width="1600" height="900" viewBox="0 0 1600 900" fill="none" xmlns="http://www.w3.org/2000/svg">
  <rect width="1600" height="900" fill="#F7F6F2"/>
  <rect x="38" y="38" width="1524" height="824" stroke="#111111" stroke-width="2"/>
  <rect x="68" y="68" width="1464" height="764" stroke="#111111" stroke-width="1" opacity="0.35"/>

  <text x="800" y="214" text-anchor="middle"
        font-family="Didot, Bodoni 72, Baskerville, Times New Roman, serif"
        font-size="136" font-style="italic" fill="#050505">
    Investor Skills
  </text>

  <g fill="#050505">
    <circle cx="645" cy="294" r="8"/>
    <circle cx="685" cy="294" r="8"/>
    <circle cx="725" cy="294" r="8"/>
    <circle cx="875" cy="294" r="8"/>
    <circle cx="915" cy="294" r="8"/>
    <circle cx="955" cy="294" r="8"/>
  </g>

  <text x="800" y="312" text-anchor="middle"
        font-family="Didot, Bodoni 72, Baskerville, Times New Roman, serif"
        font-size="34" font-style="italic" fill="#050505">
    Mental models from history's greatest investors
  </text>

  <line x1="270" y1="410" x2="1330" y2="410" stroke="#111111" stroke-width="1"/>

  <text x="800" y="500" text-anchor="middle"
        font-family="Times New Roman, Georgia, serif"
        font-size="52" letter-spacing="0" fill="#050505">
    From investor judgment to executable AI-agent skills
  </text>

  <text x="800" y="580" text-anchor="middle"
        font-family="Times New Roman, Georgia, serif"
        font-size="30" letter-spacing="0" fill="#050505">
    Buffett - Munger - Druckenmiller - Soros - Marks - Dalio - Lynch - Li Lu
  </text>

  <g font-family="Times New Roman, Georgia, serif" font-size="24" fill="#050505">
    <text x="375" y="704" text-anchor="middle">Source the model</text>
    <text x="800" y="704" text-anchor="middle">Structure the process</text>
    <text x="1225" y="704" text-anchor="middle">Ship the skill</text>
  </g>

  <g stroke="#111111" stroke-width="1.5" fill="none">
    <circle cx="375" cy="662" r="26"/>
    <circle cx="800" cy="662" r="26"/>
    <circle cx="1225" cy="662" r="26"/>
    <path d="M403 662H772"/>
    <path d="M828 662H1197"/>
  </g>

  <text x="800" y="792" text-anchor="middle"
        font-family="Didot, Bodoni 72, Baskerville, Times New Roman, serif"
        font-size="30" font-style="italic" fill="#050505">
    A public skill library for Questflow agents
  </text>
</svg>
